<svg width="135" height="128" viewBox="0 0 135 128" fill="none" xmlns="http://www.w3.org/2000/svg">
<g clip-path="url(#clip0_114:68)">
<path d="M11.1132 0.742035H123.591C129.798 0.742035 134.876 5.56522 134.876 11.687V82.5507C134.876 88.6725 129.798 93.8667 123.591 93.8667H79.7661V112.232H111.741C116.444 112.232 116.82 127.443 117.384 128H17.5082C17.5082 128 17.5082 112.232 23.1509 112.232H55.1263V93.8667H11.1132C4.90621 93.8667 0.0158691 88.6725 0.0158691 82.5507V11.687C0.0158691 5.56522 4.90621 0.742035 11.1132 0.742035ZM11.1132 82.5507H123.591V11.687H11.1132V82.5507Z" fill="#2C2C2C"/>
<path fill-rule="evenodd" clip-rule="evenodd" d="M70.1 23.5C75.7 23.85 80.95 26.65 84.8 30.5C89.35 35.4 91.8 41.35 91.8 48.35C91.8 53.95 89.7 59.2 86.2 63.75C82.7 67.95 77.8 71.1 72.2 72.15C66.6 73.2 61 72.5 56.1 69.7C51.2 66.9 47.35 62.7 45.25 57.45C43.15 52.2 42.8 46.25 44.55 41C46.3 35.4 49.45 30.85 54.35 27.7C58.9 24.55 64.5 23.15 70.1 23.5ZM71.85 68.65C76.4 67.6 80.6 65.15 83.75 61.3C86.55 57.45 88.3 52.9 87.95 48C87.95 42.4 85.85 36.8 82 32.95C78.5 29.45 74.3 27.35 69.4 27C64.85 26.65 59.95 27.7 56.1 30.5C52.25 33.3 49.45 37.15 48.05 42.05C46.65 46.6 46.65 51.5 48.75 56.05C50.85 60.6 54 64.1 58.2 66.55C62.4 69 67.3 69.7 71.85 68.65ZM67.65 46.25L76.05 37.5L78.5 39.95L70.1 48.7L78.5 57.45L76.05 59.9L67.65 51.15L59.25 59.9L56.8 57.45L65.2 48.7L56.8 39.95L59.25 37.5L67.65 46.25Z" fill="#F21E1E"/>
</g>
<defs>
<clipPath id="clip0_114:68">
<rect width="134.892" height="128" fill="white"/>
</clipPath>
</defs>
</svg>
