<svg width="135" height="128" viewBox="0 0 135 128" fill="none" xmlns="http://www.w3.org/2000/svg">
<g clip-path="url(#clip0_415_2)">
<path d="M11.1132 0.742004H123.591C129.798 0.742004 134.876 5.56519 134.876 11.6869V82.5507C134.876 88.6724 129.798 93.8666 123.591 93.8666H79.766V112.232H111.741C116.444 112.232 116.82 127.443 117.384 128H17.5082C17.5082 128 17.5082 112.232 23.1509 112.232H55.1262V93.8666H11.1132C4.9062 93.8666 0.0158539 88.6724 0.0158539 82.5507V11.6869C0.0158539 5.56519 4.9062 0.742004 11.1132 0.742004ZM11.1132 82.5507H123.591V11.6869H11.1132V82.5507Z" fill="#2C2C2C"/>
<path fill-rule="evenodd" clip-rule="evenodd" d="M63.5 22.5H60V33H54.75L53 34.75V47C52.9997 50.4102 54.2441 53.7032 56.4996 56.2609C58.7551 58.8187 61.8666 60.4652 65.25 60.8915V71.5H68.75V60.8915C72.1334 60.4652 75.2449 58.8187 77.5004 56.2609C79.7559 53.7032 81.0003 50.4102 81 47V34.75L79.25 33H74V22.5H70.5V33H63.5V22.5ZM74.4235 54.4235C72.9551 55.8915 71.0843 56.8912 69.0478 57.2961C67.0113 57.7011 64.9005 57.4932 62.9821 56.6986C61.0638 55.9041 59.4241 54.5586 58.2703 52.8323C57.1165 51.106 56.5004 49.0764 56.5 47V36.5H77.5V47C77.4994 49.7845 76.3928 52.4548 74.4235 54.4235V54.4235Z" fill="#6B6B6B"/>
</g>
<defs>
<clipPath id="clip0_415_2">
<rect width="134.892" height="128" fill="white"/>
</clipPath>
</defs>
</svg>
