<svg width="135" height="128" viewBox="0 0 135 128" fill="none" xmlns="http://www.w3.org/2000/svg">
<g clip-path="url(#clip0_259:9)">
<path d="M11.1132 0.742004H123.591C129.798 0.742004 134.876 5.56519 134.876 11.6869V82.5507C134.876 88.6724 129.798 93.8666 123.591 93.8666H79.766V112.232H111.741C116.444 112.232 116.82 127.443 117.384 128H17.5082C17.5082 128 17.5082 112.232 23.1509 112.232H55.1262V93.8666H11.1132C4.9062 93.8666 0.0158539 88.6724 0.0158539 82.5507V11.6869C0.0158539 5.56519 4.9062 0.742004 11.1132 0.742004ZM11.1132 82.5507H123.591V11.6869H11.1132V82.5507Z" fill="#2C2C2C"/>
<path fill-rule="evenodd" clip-rule="evenodd" d="M65.46 23.5H68.54L91.43 66.41L89.89 69H44.04L42.5 66.41L65.46 23.5ZM67 27.98L46.98 65.5H86.95L67 27.98ZM69.1875 62V58.5H64.8125V62H69.1875ZM64.8125 55V41H69.1875V55H64.8125Z" fill="#FFC700"/>
</g>
<defs>
<clipPath id="clip0_259:9">
<rect width="134.892" height="128" fill="white"/>
</clipPath>
</defs>
</svg>
