<svg width="135" height="128" viewBox="0 0 135 128" fill="none" xmlns="http://www.w3.org/2000/svg">
<g clip-path="url(#clip0_259:14)">
<path d="M11.1132 0.742004H123.591C129.798 0.742004 134.876 5.56519 134.876 11.6869V82.5507C134.876 88.6724 129.798 93.8666 123.591 93.8666H79.766V112.232H111.741C116.444 112.232 116.82 127.443 117.384 128H17.5082C17.5082 128 17.5082 112.232 23.1509 112.232H55.1262V93.8666H11.1132C4.9062 93.8666 0.0158542 88.6724 0.0158542 82.5507V11.6869C0.0158542 5.56519 4.9062 0.742004 11.1132 0.742004ZM11.1132 82.5507H123.591V11.6869H11.1132V82.5507Z" fill="#2C2C2C"/>
<path d="M60.945 58.0449H63.43L79.39 42.0849L76.905 39.5999L62.205 54.3349L55.485 47.6149L53 50.0999L60.945 58.0449Z" fill="#0FA958"/>
<path fill-rule="evenodd" clip-rule="evenodd" d="M69.1 23.4999C74.7 23.8499 79.95 26.6499 83.8 30.4999C88.35 35.3999 90.8 41.3499 90.8 48.3499C90.8 53.9499 88.7 59.1999 85.2 63.7499C81.7 67.9499 76.8 71.0999 71.2 72.1499C65.6 73.1999 60 72.4999 55.1 69.6999C50.2 66.8999 46.35 62.6999 44.25 57.4499C42.15 52.1999 41.8 46.2499 43.55 40.9999C45.3 35.3999 48.45 30.8499 53.35 27.6999C57.9 24.5499 63.5 23.1499 69.1 23.4999ZM70.85 68.6499C75.4 67.5999 79.6 65.1499 82.75 61.2999C85.55 57.4499 87.3 52.8999 86.95 47.9999C86.95 42.3999 84.85 36.7999 81 32.9499C77.5 29.4499 73.3 27.3499 68.4 26.9999C63.85 26.6499 58.95 27.6999 55.1 30.4999C51.25 33.2999 48.45 37.1499 47.05 42.0499C45.65 46.5999 45.65 51.4999 47.75 56.0499C49.85 60.5999 53 64.0999 57.2 66.5499C61.4 68.9999 66.3 69.6999 70.85 68.6499V68.6499Z" fill="#0FA958"/>
</g>
<defs>
<clipPath id="clip0_259:14">
<rect width="134.892" height="128" fill="white"/>
</clipPath>
</defs>
</svg>
